<svg width="129" height="25" viewBox="0 0 129 25" fill="none" xmlns="http://www.w3.org/2000/svg">
<path fill-rule="evenodd" clip-rule="evenodd" d="M46.0354 16.1903V9.63062H44.2091C43.7387 9.62654 43.3583 9.24663 43.3542 8.77677C43.3583 8.3069 43.7387 7.927 44.2091 7.92291H49.785C50.2554 7.927 50.6357 8.3069 50.6398 8.77677C50.6357 9.24663 50.2554 9.62654 49.785 9.63062H47.9779V16.1903C47.9738 16.6602 47.5935 17.0401 47.1231 17.0442H46.8705C46.4042 17.0377 46.0309 16.656 46.0354 16.1903Z" fill="#044A41"/>
<path fill-rule="evenodd" clip-rule="evenodd" d="M56.7798 16.5587L55.2644 13.8031H53.846V16.093C53.8452 16.618 53.4193 17.0434 52.8938 17.0442H52.8547C52.3291 17.0434 51.9033 16.618 51.9025 16.093V7.92291H56.1771C58.081 7.92291 59.2661 9.16492 59.2661 10.8726C59.2661 12.4638 58.2363 13.3374 57.2455 13.57L58.4499 15.5883C58.6286 15.8812 58.6343 16.2479 58.4648 16.5462C58.2952 16.8446 57.977 17.0276 57.6336 17.0244C57.2852 17.0369 56.9577 16.8583 56.7798 16.5587ZM57.246 10.8552C57.246 10.0982 56.6631 9.63344 55.8859 9.63344H53.8262V12.0982H55.8859C56.6631 12.0954 57.246 11.6297 57.246 10.8552Z" fill="#044A41"/>
<path fill-rule="evenodd" clip-rule="evenodd" d="M66.7855 16.4229L66.4359 15.5108H62.5311L62.1816 16.4229C62.0509 16.8024 61.6893 17.0537 61.2877 17.0442H61.1517C60.4931 17.0442 60.0052 16.3651 60.2579 15.7439L62.8421 9.04841C63.1094 8.35902 63.773 7.90425 64.5132 7.9032C65.2516 7.90973 65.9124 8.36259 66.1842 9.04841L68.7671 15.7425C69.0023 16.383 68.5535 17.0428 67.8732 17.0428H67.7372C67.2908 17.0442 66.9214 16.8111 66.7855 16.4229ZM64.4929 9.86372L63.0745 13.7838H65.9114L64.4929 9.86372Z" fill="#044A41"/>
<path fill-rule="evenodd" clip-rule="evenodd" d="M75.9562 16.4619L72.0123 11.0865V16.0714C72.0155 16.3302 71.914 16.5793 71.7309 16.7624C71.5478 16.9455 71.2985 17.0471 71.0394 17.0442C70.7807 17.0465 70.532 16.9446 70.3494 16.7616C70.1668 16.5786 70.0657 16.3298 70.0688 16.0714V9.16352C70.0737 8.4796 70.6276 7.92638 71.3123 7.92151C71.7863 7.92062 72.2329 8.14366 72.5166 8.52302L76.3052 13.6452V8.89332C76.3027 8.63518 76.4042 8.38688 76.587 8.20434C76.7697 8.02181 77.0183 7.92038 77.2767 7.92292C77.5352 7.92038 77.7837 8.02181 77.9665 8.20434C78.1492 8.38688 78.2508 8.63518 78.2482 8.89332V15.8797C78.2464 16.5221 77.7255 17.0424 77.0824 17.0442C76.6373 17.0337 76.2218 16.8189 75.9562 16.4619Z" fill="#044A41"/>
<path fill-rule="evenodd" clip-rule="evenodd" d="M79.9193 14.9093C80.2105 14.4821 80.7741 14.4046 81.2018 14.6743C81.8516 15.1075 82.6162 15.3366 83.3974 15.3322C84.4658 15.3322 84.9904 14.8665 84.9904 14.3233C84.9904 12.7321 79.725 13.8576 79.725 10.4229C79.725 8.90931 81.0461 7.6283 83.2026 7.6283C84.2518 7.6283 85.1649 7.84164 85.9421 8.28619C86.4084 8.55781 86.5443 9.17905 86.2333 9.60574C85.962 9.96824 85.4648 10.0759 85.0675 9.85809C84.4456 9.4892 83.7465 9.33412 83.0469 9.33412C82.2307 9.33412 81.7644 9.68328 81.7644 10.227C81.7644 11.6631 87.0101 10.6927 87.0101 14.1086C87.0101 15.7777 85.8057 17.039 83.3574 17.039C82.0364 17.039 81.0051 16.7101 80.21 16.1852C79.725 15.9182 79.6088 15.3365 79.9193 14.9093Z" fill="#044A41"/>
<path fill-rule="evenodd" clip-rule="evenodd" d="M88.2737 16.1903V7.92291H93.8887C94.3591 7.927 94.7394 8.3069 94.7435 8.77677C94.7394 9.24663 94.3591 9.62654 93.8887 9.63062H90.2341V11.5517H92.0605C92.5312 11.5555 92.9119 11.9358 92.9158 12.406C92.9117 12.8759 92.5313 13.2558 92.0609 13.2598H90.2341V16.1903C90.2301 16.6602 89.8497 17.0401 89.3793 17.0442H89.1441C88.6623 17.0442 88.2737 16.6753 88.2737 16.1903Z" fill="#044A41"/>
<path fill-rule="evenodd" clip-rule="evenodd" d="M96.0843 17.0442V7.92291H101.699C102.17 7.927 102.55 8.3069 102.554 8.77677C102.55 9.24663 102.17 9.62654 101.699 9.63062H98.0466V11.5517H99.8729C100.343 11.5558 100.724 11.9359 100.728 12.406C100.724 12.8759 100.343 13.2558 99.8729 13.2598H98.0466V15.3364H101.699C102.17 15.3405 102.55 15.7204 102.554 16.1903C102.55 16.6602 102.17 17.0401 101.699 17.0442H96.0843Z" fill="#044A41"/>
<path fill-rule="evenodd" clip-rule="evenodd" d="M104.069 17.0442V7.92291H109.684C110.155 7.927 110.535 8.3069 110.539 8.77677C110.535 9.24663 110.155 9.62654 109.684 9.63062H106.032V11.5517H107.858C108.329 11.5558 108.709 11.9359 108.713 12.406C108.709 12.8759 108.329 13.2558 107.858 13.2598H106.032V15.3364H109.685C110.155 15.3405 110.536 15.7204 110.54 16.1903C110.536 16.6602 110.155 17.0401 109.685 17.0442H104.069Z" fill="#044A41"/>
<path fill-rule="evenodd" clip-rule="evenodd" d="M116.951 16.5587L115.436 13.8031H114.017V16.093C114.016 16.618 113.591 17.0434 113.065 17.0442H113.026C112.5 17.0434 112.075 16.618 112.074 16.093V7.92291H116.348C118.252 7.92291 119.437 9.16492 119.437 10.8726C119.437 12.4638 118.408 13.3374 117.417 13.57L118.621 15.5883C118.8 15.8812 118.806 16.2479 118.636 16.5462C118.466 16.8446 118.148 17.0276 117.805 17.0244C117.455 17.0417 117.126 16.8618 116.951 16.5587ZM117.417 10.8552C117.417 10.0982 116.834 9.63344 116.057 9.63344H113.998V12.0982H116.057C116.834 12.0954 117.417 11.6297 117.417 10.8552Z" fill="#044A41"/>
<path fill-rule="evenodd" clip-rule="evenodd" d="M126.957 16.4229L126.607 15.5108H122.702L122.353 16.4229C122.222 16.8024 121.861 17.0537 121.459 17.0442H121.284C120.626 17.0442 120.138 16.3651 120.391 15.7439L122.975 9.04841C123.242 8.35902 123.906 7.90425 124.646 7.9032C125.384 7.90973 126.045 8.36259 126.317 9.04841L128.9 15.7425C129.135 16.383 128.686 17.0428 128.006 17.0428H127.871C127.462 17.0442 127.093 16.8111 126.957 16.4229ZM124.645 9.86372L123.227 13.7838H126.083L124.645 9.86372Z" fill="#044A41"/>
<path fill-rule="evenodd" clip-rule="evenodd" d="M14.5523 23.531V4.36652H11.6378V23.531C11.6429 24.3334 12.2929 24.9826 13.0962 24.9878C13.4828 24.988 13.8537 24.8345 14.1269 24.5612C14.4001 24.2879 14.5531 23.9172 14.5523 23.531Z" fill="#30BCAD"/>
<path fill-rule="evenodd" clip-rule="evenodd" d="M32.0383 23.531V6.5498H29.1238V23.531C29.1289 24.3334 29.7789 24.9826 30.5822 24.9878C30.9689 24.988 31.3398 24.8346 31.6129 24.5612C31.8861 24.2879 32.0392 23.9172 32.0383 23.531Z" fill="#30BCAD"/>
<path fill-rule="evenodd" clip-rule="evenodd" d="M23.2953 18.5042V23.5324C23.3004 24.3348 23.9504 24.984 24.7537 24.9892C25.557 24.984 26.207 24.3348 26.2121 23.5324V20.5615C26.2156 19.4054 25.403 18.4069 24.2691 18.1743C24.1115 18.1358 23.2953 17.9375 23.2953 18.5042Z" fill="#30BCAD"/>
<path fill-rule="evenodd" clip-rule="evenodd" d="M8.72373 16.0982V4.36652H5.80923V15.7486C6.78058 15.8457 7.75208 15.9622 8.72373 16.0982Z" fill="#30BCAD"/>
<path fill-rule="evenodd" clip-rule="evenodd" d="M5.80923 19.0991V23.531C5.81437 24.3334 6.46433 24.9826 7.26766 24.9878C8.07099 24.9826 8.72095 24.3334 8.72608 23.531V21.1367C8.7272 19.8918 7.78916 18.8461 6.55021 18.711C6.45047 18.6912 5.80923 18.6734 5.80923 19.0991Z" fill="#30BCAD"/>
<path fill-rule="evenodd" clip-rule="evenodd" d="M8.72372 4.36654C8.75515 3.58538 9.39828 2.96827 10.181 2.96827C10.9637 2.96827 11.6068 3.58538 11.6382 4.36654H14.5527C14.5527 1.95497 12.5955 0 10.1812 0C7.76688 0 5.80969 1.95497 5.80969 4.36654H8.72419H8.72372Z" fill="#30BCAD"/>
<path fill-rule="evenodd" clip-rule="evenodd" d="M26.2098 6.54983C26.2412 5.76867 26.8843 5.15156 27.667 5.15156C28.4497 5.15156 29.0929 5.76867 29.1243 6.54983H32.0383C32.0383 4.13826 30.0811 2.18329 27.6668 2.18329C25.2525 2.18329 23.2953 4.13826 23.2953 6.54983H26.2098Z" fill="#30BCAD"/>
<path fill-rule="evenodd" clip-rule="evenodd" d="M31.2611 14.6424V17.5752C33.2621 17.8468 35.2439 18.1767 37.2063 18.5649C37.3632 18.5932 37.5246 18.5515 37.648 18.4507C37.7714 18.3499 37.8443 18.2001 37.8475 18.0409C37.8418 16.6793 36.8591 15.5178 35.5159 15.2853C34.1171 15.0509 32.6988 14.8366 31.2611 14.6424Z" fill="#30BCAD"/>
<path fill-rule="evenodd" clip-rule="evenodd" d="M10.2974 14.3708C7.09524 14.6971 3.91143 15.1833 0.75791 15.8275C0.317138 15.9202 0.00121612 16.3081 0 16.758C0.00243082 17.2953 0.246166 17.8032 0.664021 18.1417C1.08188 18.4801 1.62974 18.6134 2.15659 18.5047C4.42985 18.0583 6.74168 17.6894 9.05399 17.4178C10.0956 17.3065 10.8843 16.4265 10.8803 15.3802V14.8966C10.8606 14.5841 10.6084 14.3327 10.2974 14.3708Z" fill="#30BCAD"/>
<path fill-rule="evenodd" clip-rule="evenodd" d="M19.5457 13.9051C17.6225 13.9051 15.6987 13.9634 13.7948 14.0799V16.9911C15.6987 16.8745 17.6225 16.8163 19.5457 16.8163C21.7606 16.8163 23.9755 16.8938 26.1514 17.0512C27.3365 17.148 28.3471 16.1974 28.3471 14.9939V14.7806C28.3471 14.5089 28.1335 14.2759 27.8808 14.2566C25.1225 14.0409 22.343 13.9051 19.5457 13.9051Z" fill="#30BCAD"/>
<path fill-rule="evenodd" clip-rule="evenodd" d="M10.8605 4.50377C10.8607 4.25824 10.719 4.03467 10.4967 3.9298C10.2744 3.82493 10.0115 3.85759 9.82177 4.01363L9.81283 4.02115L9.8086 4.02444C9.60336 4.19295 9.47689 4.43862 9.45908 4.70339C9.44127 4.96815 9.53369 5.22852 9.7145 5.42294C9.87854 5.6012 10.043 5.7735 10.208 5.93986C10.3173 6.04892 10.4815 6.08153 10.6242 6.0225C10.7669 5.96347 10.86 5.8244 10.8601 5.67012L10.8605 4.50377Z" fill="#30BCAD"/>
<path fill-rule="evenodd" clip-rule="evenodd" d="M28.0187 6.38348C27.7128 5.99093 27.1587 5.89417 26.7376 6.1598C24.8036 7.37784 19.3298 10.11 13.7751 6.391V8.6598C15.6126 9.67327 17.6777 10.204 19.7767 10.2021C20.608 10.2007 21.4374 10.122 22.2541 9.96713C24.7236 9.50284 26.6962 8.46337 27.7689 7.79796C28.0015 7.65289 28.1615 7.41602 28.2091 7.14629C28.2568 6.87655 28.1875 6.59929 28.0187 6.38348Z" fill="#30BCAD"/>
<path fill-rule="evenodd" clip-rule="evenodd" d="M26.2098 7.75657V6.5498H23.2953V8.76503C24.3013 8.53832 25.2789 8.20007 26.2098 7.75657Z" fill="#30BCAD"/>
<path fill-rule="evenodd" clip-rule="evenodd" d="M23.2953 12.1795V15.0108C24.2861 15.2049 25.2576 15.399 26.2098 15.6123V10.4859C26.2094 10.3447 26.1399 10.2126 26.0238 10.1322C25.9076 10.0517 25.7594 10.0331 25.6269 10.0823C25.3131 10.196 24.9847 10.3041 24.6432 10.4037C23.8482 10.63 23.2988 11.3539 23.2953 12.1795Z" fill="#30BCAD"/>
<path fill-rule="evenodd" clip-rule="evenodd" d="M26.0635 2.18329H29.2626C30.7935 2.18329 32.0345 3.42292 32.0345 4.95209V6.54983H29.7956L27.6607 3.94128L25.4241 6.54983H23.2878V4.95209C23.2877 4.21711 23.5803 3.51228 24.101 2.99292C24.6216 2.47356 25.3276 2.18229 26.0635 2.18329Z" fill="#30BCAD"/>
<path fill-rule="evenodd" clip-rule="evenodd" d="M8.57508 0H11.7742C13.3051 0 14.5462 1.23963 14.5462 2.7688V4.36654H12.3096L10.1746 1.75799L7.93808 4.36654H5.80313V2.7688C5.80313 1.23963 7.04417 0 8.57508 0Z" fill="#30BCAD"/>
</svg>
