<svg width="24" height="24" viewBox="0 0 24 24" fill="none" xmlns="http://www.w3.org/2000/svg">
<path d="M24 24H5.25304C5.25304 24 0 24 0 18.7468V0H18.7468C18.7468 0 24 0 24 5.25322V24Z" fill="#D11F3D"/>
<path d="M11 20H13V12H11V20Z" fill="white"/>
<path d="M7.79556 6.56971C7.79556 6.56971 9.66095 4.67994 12.8052 5.30171C12.8052 5.30171 14.1885 5.52495 15.2489 6.50085C15.2489 6.50085 15.4067 6.65392 15.528 6.52826C15.528 6.52826 15.6817 6.40326 15.5105 6.21624C15.5105 6.21624 14.5993 4.90596 12.7988 4.32679C12.7988 4.32679 10.3268 3.40948 7.78674 4.64861C7.78674 4.64861 6.22343 5.31998 5.35641 7.14921C5.35641 7.14921 4.12037 7.56291 3.19382 8.10193C3.19382 8.10193 2.91978 8.21372 3.02341 8.43468C3.02341 8.43468 3.11192 8.59265 3.35163 8.47515C3.35163 8.47515 4.21219 8.16754 5.04173 7.97562C5.04173 7.97562 4.37457 9.76862 5.07118 11.9929C5.38129 12.984 5.94686 13.9924 6.81136 14.803C6.81136 14.803 6.95201 14.9564 7.10572 14.8514C7.10572 14.8514 7.23897 14.7511 7.14525 14.5869C7.14525 14.5869 6.45589 13.5118 6.18799 11.9831C5.96497 10.7359 6.07018 9.01434 6.9057 7.64972C6.9057 7.64972 10.0871 7.18968 12.7988 8.24783C12.7988 8.24783 17.4051 9.80501 16.2456 12.6935C16.2456 12.6935 15.9082 13.6977 14.6371 14.6044C14.6371 14.6044 14.424 14.7331 14.5397 14.9174C14.5397 14.9174 14.6356 15.0611 14.8535 14.9694C14.8535 14.9694 16.8006 14.3127 17.6408 12.6919C17.6408 12.6919 19.3459 9.98909 15.3259 7.78371C15.3259 7.78371 14.2205 7.17157 12.7988 6.84453C12.7988 6.84453 10.2391 6.18817 7.79556 6.56971Z" fill="white"/>
<path d="M9 20H10V14H9V20Z" fill="white"/>
</svg>
