<svg width="25" height="24" viewBox="0 0 25 24" fill="none" xmlns="http://www.w3.org/2000/svg">
<path d="M4.07011 0H20.3233C21.4555 0 22.3988 0.398102 23.1805 1.16806C23.9891 1.93801 24.3934 2.89376 24.3934 4.00877V20.0176C24.3934 21.1062 23.9891 22.0619 23.1805 22.8318C22.3988 23.6018 21.4555 24 20.3233 24H4.07011C2.93807 24 1.96774 23.6018 1.18603 22.8318C0.404318 22.0619 0 21.1062 0 20.0176V4.00877C0 2.89376 0.404318 1.93801 1.18603 1.16806C1.96774 0.398102 2.93807 0 4.07011 0Z" fill="#292D78"/>
<path fill-rule="evenodd" clip-rule="evenodd" d="M3.92652 20.1276H2V12H3.92652V20.1276ZM7.53533 14.0454H8.70216V15.4448H7.53533V17.5979C7.53533 18.0016 7.58954 18.2707 7.6981 18.4321C7.83378 18.6475 8.05091 18.755 8.34936 18.755C8.53925 18.755 8.64781 18.7283 8.70216 18.6744L8.72927 20.1007C8.43068 20.2084 8.10512 20.2623 7.6981 20.2623C7.07409 20.2623 6.55851 20.0738 6.20571 19.697C5.85304 19.3472 5.69026 18.7283 5.69026 17.8939V15.4448H4.82188V14.0454H5.69026V12H7.53533V14.0454ZM20.044 13.6417H18.7145L19.8812 12H21.6721L20.044 13.6417ZM16.3266 14.0454H18.2261V17.2479C18.2261 18.2438 18.606 18.755 19.3386 18.755C19.9083 18.755 20.2883 18.4859 20.5054 17.9745C20.5325 17.8939 20.5596 17.7593 20.5596 17.5979V14.0454H22.459V20.1276H20.7767V19.1587H20.7495C20.3154 19.8855 19.6099 20.2623 18.6602 20.2623C17.982 20.2623 17.4393 20.0738 17.0323 19.6701C16.5709 19.2127 16.3266 18.5128 16.3266 17.5708V14.0454ZM13.342 16.0639C12.0938 16.0639 11.1441 16.2522 10.493 16.6559C9.81465 17.0596 9.46185 17.6516 9.46185 18.4321C9.46185 18.9165 9.65173 19.3472 10.0045 19.697C10.4116 20.0738 10.927 20.2623 11.5511 20.2623C12.3923 20.2623 13.0164 19.993 13.4506 19.4818H13.5048V20.1276H15.2414V16.5482C15.2414 15.7408 15.0243 15.1219 14.6173 14.6643C14.1289 14.1531 13.3962 13.8839 12.4194 13.8839C11.4155 13.8839 10.5743 14.0723 9.92322 14.476L10.2759 15.6602C10.8186 15.3373 11.4155 15.1757 12.0938 15.1757C12.935 15.1757 13.342 15.4448 13.342 16.01V16.0639ZM11.2256 18.2707C11.2256 17.5441 11.9582 17.221 13.3962 17.2479V17.8939L13.3691 18.2438C13.2878 18.4859 13.125 18.6744 12.9079 18.809C12.6907 18.9973 12.4194 19.0781 12.1209 19.0781C11.524 19.0781 11.2256 18.809 11.2256 18.2707Z" fill="#FFF101"/>
</svg>
