<?xml version="1.0" standalone="no"?>
<!DOCTYPE svg PUBLIC "-//W3C//DTD SVG 20010904//EN"
 "http://www.w3.org/TR/2001/REC-SVG-20010904/DTD/svg10.dtd">
<svg version="1.0" xmlns="http://www.w3.org/2000/svg"
 width="1350.000000pt" height="1344.000000pt" viewBox="0 0 1350.000000 1344.000000"
 preserveAspectRatio="xMidYMid meet">
<metadata>
Created by potrace 1.10, written by Peter Selinger 2001-2011
</metadata>
<g transform="translate(0.000000,1344.000000) scale(0.100000,-0.100000)"
fill="#ff0000" stroke="none">
<path d="M2135 13430 c8 -13 -37 -30 -79 -30 -46 0 -332 -59 -381 -79 -11 -4
-45 -16 -75 -25 -94 -29 -160 -58 -307 -133 -136 -68 -189 -101 -313 -188
-180 -126 -420 -367 -540 -540 -19 -27 -38 -52 -41 -55 -13 -12 -110 -181
-149 -260 -23 -47 -45 -92 -50 -100 -16 -32 -87 -216 -98 -255 -6 -22 -17 -62
-25 -90 -8 -27 -24 -104 -36 -170 -13 -66 -27 -139 -32 -163 -12 -58 -12
-9207 0 -9264 6 -24 19 -95 31 -158 12 -63 27 -135 35 -160 7 -25 20 -72 30
-105 9 -33 25 -78 35 -100 10 -22 30 -71 45 -110 15 -38 31 -74 36 -79 5 -6 9
-15 9 -22 0 -11 99 -189 145 -259 17 -26 112 -155 177 -239 49 -63 175 -189
272 -271 200 -169 374 -277 621 -386 55 -24 208 -79 221 -79 8 0 22 -4 32 -9
21 -11 127 -38 202 -50 110 -19 187 -30 270 -41 128 -17 9093 -9 9210 8 360
52 593 130 922 310 148 81 354 245 511 407 110 114 256 300 311 400 9 17 32
57 52 90 31 54 73 138 109 220 25 55 83 210 88 235 3 14 13 52 21 85 29 110
56 259 66 359 11 113 17 139 31 131 5 -4 9 1711 9 4446 0 3926 -2 4453 -15
4463 -10 8 -18 44 -25 121 -13 151 -81 480 -109 533 -6 9 -31 71 -57 137 -50
128 -63 154 -155 310 -73 122 -128 202 -204 292 -295 352 -672 609 -1105 753
-77 26 -369 90 -411 90 -49 0 -79 10 -79 26 0 12 -691 14 -4606 14 -3073 0
-4603 -3 -4599 -10z m4682 -1461 c8 -24 11 -117 10 -309 -2 -286 -1 -291 47
-480 22 -85 64 -199 86 -235 11 -18 20 -40 20 -49 0 -10 16 -47 37 -84 20 -37
50 -94 68 -127 17 -33 44 -80 61 -104 16 -24 36 -55 44 -70 44 -78 75 -127 85
-136 7 -6 39 -50 71 -99 75 -113 77 -116 149 -210 33 -43 69 -93 79 -110 19
-30 97 -128 152 -191 14 -16 54 -68 87 -115 34 -47 97 -129 142 -182 124 -151
168 -207 195 -248 14 -21 53 -76 88 -122 55 -71 121 -164 202 -283 11 -16 39
-59 62 -95 23 -36 58 -90 78 -120 21 -30 50 -77 64 -105 15 -27 38 -68 51 -90
42 -69 52 -89 60 -114 4 -12 18 -39 31 -58 13 -20 24 -44 24 -53 0 -9 11 -33
25 -53 13 -20 29 -54 34 -74 6 -21 20 -56 31 -78 11 -21 20 -45 20 -51 0 -7
13 -52 29 -101 16 -48 32 -115 35 -148 4 -33 14 -87 23 -120 12 -42 17 -101
17 -200 0 -120 -4 -150 -23 -206 -25 -73 -19 -109 19 -109 11 0 41 -8 67 -19
26 -10 74 -21 105 -25 32 -3 92 -17 135 -30 43 -14 103 -29 134 -36 31 -6 79
-20 108 -30 28 -11 59 -20 69 -20 9 0 35 -9 57 -21 21 -12 67 -25 102 -30 35
-5 81 -18 102 -28 21 -11 89 -36 152 -56 63 -20 134 -45 159 -55 25 -11 63
-24 85 -31 22 -6 58 -21 80 -34 22 -12 54 -25 70 -29 17 -4 57 -20 90 -35 33
-16 103 -49 155 -74 52 -25 111 -53 130 -62 19 -9 62 -31 95 -50 33 -18 78
-43 100 -55 97 -51 211 -120 321 -194 16 -11 58 -39 94 -63 78 -51 150 -107
305 -236 80 -67 335 -329 352 -362 8 -16 23 -39 33 -50 26 -29 140 -195 140
-203 0 -4 14 -27 30 -52 16 -25 30 -52 30 -61 0 -9 9 -28 20 -41 23 -30 66
-139 86 -223 8 -33 25 -94 37 -135 20 -68 22 -98 22 -305 0 -192 -3 -237 -17
-271 -9 -22 -26 -80 -38 -129 -11 -50 -27 -99 -34 -110 -7 -11 -19 -38 -26
-60 -7 -22 -21 -53 -31 -70 -11 -16 -19 -37 -19 -46 0 -9 -13 -34 -28 -55 -15
-21 -45 -68 -65 -104 -21 -36 -48 -79 -60 -95 -127 -174 -194 -251 -337 -386
-76 -72 -154 -140 -172 -151 -18 -11 -52 -38 -74 -58 -23 -21 -56 -46 -73 -54
-17 -9 -31 -20 -31 -24 0 -10 -194 -141 -310 -210 -44 -26 -297 -169 -330
-187 -22 -12 -201 -95 -348 -161 -29 -13 -57 -24 -63 -24 -6 0 -52 -20 -103
-44 -50 -24 -116 -52 -146 -61 -30 -9 -80 -28 -111 -41 -31 -13 -63 -24 -72
-24 -8 0 -39 -11 -68 -24 -30 -13 -106 -38 -169 -56 -63 -17 -135 -39 -160
-47 -25 -8 -63 -19 -85 -25 -22 -6 -94 -25 -160 -44 -66 -18 -140 -36 -165
-39 -25 -4 -57 -13 -72 -21 -14 -7 -53 -16 -85 -20 -32 -3 -90 -17 -130 -30
-39 -13 -83 -24 -97 -24 -42 0 -167 -20 -225 -37 -29 -8 -104 -19 -165 -23
-61 -4 -127 -15 -148 -24 -20 -9 -86 -20 -145 -25 -59 -6 -148 -17 -198 -26
-141 -24 -287 -35 -590 -44 -154 -5 -302 -14 -329 -20 -62 -15 -738 -15 -856
0 -47 5 -202 14 -345 19 -311 11 -477 24 -565 44 -36 9 -123 20 -192 25 -82 6
-138 15 -159 26 -22 12 -73 20 -159 25 -70 4 -136 13 -147 18 -20 11 -91 25
-223 44 -41 6 -87 17 -102 24 -15 8 -65 19 -110 25 -46 5 -99 16 -118 24 -19
7 -71 22 -115 33 -281 71 -243 60 -595 172 -107 34 -211 68 -230 77 -19 8 -57
24 -85 33 -27 10 -88 35 -135 55 -47 20 -101 42 -120 49 -19 8 -83 37 -142 65
-60 28 -112 51 -116 51 -4 0 -23 11 -42 25 -19 14 -44 25 -56 25 -12 0 -35 11
-51 24 -15 13 -38 27 -51 31 -13 4 -60 30 -105 58 -45 28 -113 69 -152 92
-151 88 -304 196 -460 323 -152 124 -396 377 -466 483 -13 20 -49 74 -80 120
-61 91 -129 220 -149 284 -7 22 -21 60 -32 84 -11 24 -23 64 -28 90 -5 25 -16
66 -26 91 -15 39 -17 84 -18 320 -1 261 0 277 20 315 12 22 24 59 27 82 5 41
70 214 90 241 6 7 20 35 33 61 57 124 244 365 384 494 30 28 78 74 105 102 28
27 73 68 100 89 28 22 68 56 90 77 22 20 72 59 110 85 39 26 89 61 113 78 86
62 322 208 364 226 12 5 52 27 88 49 58 35 275 145 405 206 179 84 302 138
385 170 52 19 111 43 130 52 19 8 60 24 90 34 106 35 175 60 215 80 23 10 63
22 90 25 28 4 66 15 85 24 19 9 82 32 140 49 58 18 147 46 198 63 51 16 118
32 150 35 74 7 99 -12 123 -93 64 -216 194 -452 421 -764 22 -30 62 -88 89
-129 27 -41 56 -79 64 -85 20 -15 85 -108 85 -122 0 -6 12 -21 26 -35 15 -13
57 -64 95 -114 38 -49 94 -121 124 -160 77 -98 151 -193 238 -310 41 -55 86
-113 100 -130 37 -43 70 -86 90 -115 9 -14 33 -45 52 -70 19 -25 51 -70 71
-100 20 -30 51 -72 68 -92 17 -20 43 -54 59 -75 15 -21 48 -65 72 -98 25 -33
74 -103 108 -155 35 -52 79 -118 98 -146 124 -187 263 -444 314 -585 28 -74
44 -174 45 -269 0 -81 8 -110 29 -110 26 0 159 149 202 227 22 39 46 77 54 83
8 6 19 28 25 48 7 20 22 64 35 97 13 33 26 80 30 105 4 25 14 59 23 75 13 24
17 78 20 275 4 244 -1 308 -33 440 -60 252 -83 333 -104 377 -12 23 -21 46
-21 51 0 15 -72 176 -91 204 -11 14 -19 30 -19 36 0 5 -11 25 -24 44 -13 20
-29 53 -36 74 -7 22 -20 48 -30 59 -10 11 -27 38 -39 60 -31 58 -112 186 -142
226 -14 19 -65 86 -112 149 -168 223 -336 438 -374 475 -13 12 -23 26 -23 30
0 4 -26 38 -57 75 -32 38 -84 102 -116 142 -31 40 -81 103 -110 139 -28 36
-65 85 -82 108 -16 23 -51 68 -76 99 -25 31 -54 71 -65 89 -10 17 -40 62 -65
100 -80 119 -116 176 -147 239 -17 33 -37 66 -46 73 -9 8 -16 18 -16 24 0 10
-41 99 -87 191 -27 54 -93 247 -93 274 0 9 -7 31 -16 47 -17 33 -46 172 -65
310 -28 209 -20 552 16 695 7 30 17 80 21 110 3 30 13 66 20 80 8 14 30 75 50
135 19 61 46 126 60 146 13 19 24 39 24 45 0 10 68 116 102 157 61 74 188 202
226 229 49 34 67 33 94 -3 17 -23 20 -46 22 -245 2 -242 25 -459 55 -539 11
-27 22 -63 26 -80 3 -16 18 -57 32 -90 51 -121 95 -220 106 -240 106 -192 138
-243 237 -380 27 -38 62 -88 76 -109 46 -68 166 -224 274 -355 30 -36 75 -92
99 -123 24 -32 46 -58 50 -58 3 0 14 -12 23 -27 9 -15 46 -61 82 -102 263
-301 327 -375 371 -430 28 -35 73 -91 101 -125 27 -33 63 -79 80 -101 16 -22
60 -80 99 -128 81 -102 172 -232 307 -441 21 -32 52 -86 69 -120 17 -33 37
-72 44 -86 62 -112 122 -277 135 -372 6 -45 16 -96 23 -113 6 -16 13 -120 16
-230 7 -227 9 -232 80 -175 45 35 164 173 189 219 65 117 97 184 112 236 10
33 27 91 39 130 12 38 21 91 21 116 0 25 7 68 16 95 11 35 18 104 21 236 5
166 3 198 -15 275 -12 48 -23 114 -27 146 -3 32 -19 99 -35 149 -17 50 -30 98
-30 107 0 9 -12 39 -25 66 -14 28 -25 56 -25 63 0 7 -11 29 -24 50 -14 20 -28
50 -32 66 -8 33 -66 148 -112 221 -18 28 -41 68 -52 90 -11 22 -34 58 -50 80
-17 22 -46 63 -65 90 -171 248 -176 255 -202 284 -13 13 -23 28 -23 32 0 5
-22 35 -50 66 -81 95 -97 114 -165 203 -36 47 -94 121 -130 165 -102 127 -179
225 -195 249 -8 12 -42 57 -75 100 -129 169 -289 400 -322 466 -10 19 -32 55
-49 80 -17 25 -56 95 -86 155 -31 61 -63 124 -71 140 -9 17 -28 59 -43 95 -15
36 -38 90 -51 120 -13 30 -31 86 -39 123 -7 37 -20 80 -28 95 -12 24 -45 171
-76 342 -6 36 -14 153 -17 260 -8 300 24 519 113 775 36 101 129 283 173 335
21 25 45 59 54 75 20 39 168 174 221 202 49 26 74 16 93 -38z"/>
</g>
</svg>
